<svg width="20" height="20" viewBox="0 0 20 20" fill="none" xmlns="http://www.w3.org/2000/svg"><path d="M7.38064 3.07609H5.44369C4.23835 3.07609 3.63524 3.07609 3.17487 3.31066C2.76991 3.51699 2.4409 3.84599 2.23458 4.25096C2 4.71133 2 5.31444 2 6.51977V14.698C2 15.9033 2 16.5057 2.23458 16.9661C2.4409 17.371 2.76991 17.7006 3.17487 17.9069C3.63479 18.1413 4.23717 18.1413 5.44015 18.1413H13.6251C14.828 18.1413 15.4295 18.1413 15.8895 17.9069C16.2944 17.7006 16.6245 17.3707 16.8308 16.9658C17.0652 16.5058 17.0652 15.9041 17.0652 14.7011V12.7609M18.1413 7.38043V2M18.1413 2H12.7609M18.1413 2L10.6087 9.5326" stroke="#A675F4" stroke-width="2.15217" stroke-linecap="round" stroke-linejoin="round"/>
</svg>